<?xml version="1.0" encoding="UTF-8"?>
<svg width="24px" height="24px" viewBox="0 0 24 24" version="1.1" xmlns="http://www.w3.org/2000/svg">
    <g stroke="none" stroke-width="1" fill="none" fill-rule="evenodd">
        <path d="M12,2 C17.5228475,2 22,6.4771525 22,12 C22,17.5228475 17.5228475,22 12,22 C6.4771525,22 2,17.5228475 2,12 C2,6.4771525 6.4771525,2 12,2 Z M12,4 C7.581722,4 4,7.581722 4,12 C4,16.418278 7.581722,20 12,20 C16.418278,20 20,16.418278 20,12 C20,7.581722 16.418278,4 12,4 Z" fill="currentColor"/>
        <path d="M9,9 L15,9 C16.1045695,9 17,9.8954305 17,11 L17,13 C17,14.1045695 16.1045695,15 15,15 L9,15 C7.8954305,15 7,14.1045695 7,13 L7,11 C7,9.8954305 7.8954305,9 9,9 Z M9,11 L9,13 L15,13 L15,11 L9,11 Z" fill="currentColor"/>
        <circle fill="currentColor" cx="8" cy="8" r="1"/>
        <circle fill="currentColor" cx="16" cy="8" r="1"/>
        <path d="M9,16 L15,16 C15.5522847,16 16,16.4477153 16,17 C16,17.5522847 15.5522847,18 15,18 L9,18 C8.44771525,18 8,17.5522847 8,17 C8,16.4477153 8.44771525,16 9,16 Z" fill="currentColor"/>
    </g>
</svg>
